<?xml version="1.0" standalone="no"?>
<!DOCTYPE svg PUBLIC "-//W3C//DTD SVG 20010904//EN"
 "http://www.w3.org/TR/2001/REC-SVG-20010904/DTD/svg10.dtd">
<svg version="1.0" xmlns="http://www.w3.org/2000/svg"
 width="295.000000pt" height="295.000000pt" viewBox="0 0 295.000000 295.000000"
 preserveAspectRatio="xMidYMid meet">
<metadata>
Created by potrace 1.14, written by Peter Selinger 2001-2017
</metadata>
<g transform="translate(0.000000,295.000000) scale(0.100000,-0.100000)"
fill="#000000" stroke="none">
<path d="M1370 2444 c-197 -37 -357 -122 -430 -229 -43 -62 -56 -125 -55 -269
1 -69 -2 -120 -6 -114 -17 27 -118 -76 -158 -162 -22 -47 -26 -69 -26 -150 0
-87 3 -101 32 -161 36 -73 124 -165 149 -155 7 3 14 2 14 -3 0 -5 23 -8 50 -8
l50 2 0 443 c0 490 -2 477 66 551 46 52 103 86 197 118 94 32 134 38 237 36
200 -3 391 -96 451 -219 21 -43 21 -55 21 -465 0 -231 -3 -423 -6 -426 -3 -4
-6 140 -6 318 0 240 -3 328 -12 337 -14 14 -87 16 -108 2 -12 -7 -15 -36 -15
-149 0 -76 -3 -137 -7 -135 -3 2 -9 -2 -11 -8 -3 -7 -6 5 -7 27 0 30 -3 36
-10 24 -15 -26 -25 -103 -12 -95 13 8 25 -10 27 -43 1 -14 6 -25 12 -24 5 1 9
-58 8 -152 -1 -84 2 -163 7 -174 6 -17 16 -21 52 -21 65 0 76 7 76 49 0 24 3
31 9 22 10 -16 74 -21 117 -10 38 11 108 79 137 134 35 66 46 114 44 200 -2
68 -7 90 -34 146 -30 61 -117 159 -141 159 -5 0 -8 -14 -7 -30 1 -17 0 -32 -4
-34 -3 -2 -6 71 -7 163 0 156 -2 170 -26 222 -32 69 -79 123 -145 165 -55 36
-177 87 -246 105 -46 11 -237 20 -277 13z m-484 -694 c0 -12 -4 -16 -9 -11 -5
5 -6 14 -3 20 10 15 12 14 12 -9z m1188 -20 c-1 -38 -9 -47 -12 -14 -2 22 4
44 11 44 1 0 2 -14 1 -30z m2 -80 c-1 -16 -5 -32 -8 -35 -2 -3 -4 7 -2 22 3
41 4 43 8 43 3 0 3 -13 2 -30z m-1189 -52 c2 -17 0 -19 -7 -8 -5 8 -6 18 -4
22 8 12 10 10 11 -14z m1187 -28 c-1 -38 -9 -47 -12 -14 -2 22 4 44 11 44 1 0
2 -14 1 -30z m-1187 -55 c0 -8 -4 -12 -9 -9 -5 3 -6 10 -3 15 9 13 12 11 12
-6z m1188 -75 c0 -27 -2 -47 -5 -44 -3 3 -5 28 -5 54 -1 27 1 47 4 44 3 -3 6
-27 6 -54z m-1189 -9 c0 -22 -3 -38 -6 -36 -8 5 -5 75 3 75 2 0 3 -18 3 -39z
m0 -75 c0 -14 -3 -23 -7 -20 -6 3 -6 22 0 42 3 10 7 -2 7 -22z m1189 -36 c0
-27 -2 -47 -5 -44 -3 3 -5 28 -5 54 -1 27 1 47 4 44 3 -3 6 -27 6 -54z m-1188
-80 c1 -11 -2 -20 -7 -20 -6 0 -7 17 -1 38 3 8 7 -1 8 -18z m1188 -10 c1 -10
-2 -17 -6 -14 -4 2 -7 13 -6 24 2 23 10 17 12 -10z"/>
<path d="M1012 1888 c-9 -9 -12 -106 -12 -374 0 -402 -5 -374 68 -374 67 0 66
-2 70 212 1 106 4 219 6 251 1 31 0 57 -4 57 -3 0 -5 46 -5 103 1 56 -2 110
-7 120 -10 20 -97 24 -116 5z"/>
<path d="M1678 1665 c-4 -11 -8 -40 -10 -65 -2 -36 1 -45 15 -48 12 -3 17 -13
17 -38 0 -24 5 -34 16 -34 8 0 12 -4 9 -10 -3 -5 -4 -10 -1 -10 7 0 36 61 36
77 0 7 -4 13 -10 13 -5 0 -7 7 -4 15 4 8 1 15 -5 15 -6 0 -11 -8 -11 -17 0
-15 -2 -15 -9 -4 -5 8 -7 21 -4 30 3 10 -1 8 -9 -4 -12 -18 -14 -14 -18 40 -3
40 -7 53 -12 40z"/>
<path d="M1201 1658 c-7 -16 -9 -29 -10 -64 -1 -27 -6 -37 -21 -41 -18 -5 -20
-13 -19 -59 3 -72 19 -94 19 -26 0 38 3 51 12 46 6 -4 8 -3 5 2 -7 12 10 41
19 32 3 -4 9 -27 11 -52 7 -56 18 -53 22 6 3 53 11 64 11 15 0 -20 4 -37 10
-37 13 0 29 63 18 71 -5 3 -10 16 -11 28 -1 13 -6 20 -14 17 -7 -3 -12 -2 -12
2 1 4 0 18 -1 32 -1 19 -5 15 -15 -20 l-12 -45 -5 50 c-2 28 -6 47 -7 43z"/>
<path d="M1568 1615 c-4 -53 -1 -65 17 -65 13 0 24 -28 26 -70 1 -20 3 -18 9
10 l7 35 2 -33 c1 -27 3 -31 15 -20 9 8 10 15 4 19 -6 4 -5 8 2 11 16 5 24 47
10 49 -6 1 -16 2 -22 3 -7 0 -16 17 -19 36 -4 19 -7 28 -8 21 -2 -22 -22 1
-24 28 -3 38 -15 22 -19 -24z"/>
<path d="M1292 1605 c-10 -34 -10 -42 3 -51 9 -7 20 -31 24 -55 8 -38 9 -40
11 -14 2 29 2 29 9 5 6 -22 8 -20 16 20 11 59 13 110 5 110 -4 0 -7 -14 -8
-31 -1 -51 -12 -46 -12 5 0 26 -4 45 -9 42 -4 -3 -7 -17 -6 -31 2 -14 -1 -25
-5 -25 -5 0 -10 15 -12 33 l-4 32 -12 -40z"/>
<path d="M1485 1613 c-4 -19 -14 -33 -22 -33 -11 0 -14 -7 -10 -21 4 -16 3
-18 -9 -8 -8 6 -14 18 -14 25 0 7 -6 11 -14 8 -9 -3 -16 2 -18 13 -7 27 -30
-63 -25 -95 3 -21 4 -19 6 10 2 53 19 57 38 9 18 -47 30 -52 39 -16 3 14 10
22 15 19 5 -3 8 0 7 7 -2 6 2 13 9 16 6 2 14 -10 19 -29 7 -32 8 -32 15 -8 6
20 7 16 8 -20 l2 -45 13 31 c28 64 29 74 7 74 -12 0 -21 7 -21 15 0 8 -6 15
-12 15 -9 0 -8 3 2 10 13 8 13 11 1 22 -10 10 -12 10 -7 1 4 -7 3 -13 -3 -13
-5 0 -11 10 -14 23 -3 19 -5 18 -12 -10z"/>
<path d="M509 1038 c0 -7 -2 -23 -5 -35 -3 -17 2 -24 21 -29 14 -3 32 -4 40 0
20 7 20 62 -1 70 -26 10 -54 7 -55 -6z"/>
<path d="M68 1013 c0 -5 -2 -95 -3 -200 l-2 -193 117 0 c85 0 121 4 129 13 21
26 -9 37 -106 37 l-93 0 1 163 c1 90 -1 169 -5 175 -8 13 -35 16 -38 5z"/>
<path d="M2277 1013 c-4 -3 -7 -91 -7 -195 0 -162 2 -189 16 -195 27 -10 36
12 36 96 l0 81 74 0 c52 0 74 -4 75 -12 1 -7 2 -42 3 -78 2 -36 3 -71 4 -77 2
-16 28 -17 37 -2 9 14 9 364 0 379 -4 6 -14 10 -23 8 -13 -3 -17 -16 -18 -63
-3 -117 6 -105 -79 -105 l-74 0 1 73 c1 41 -2 79 -6 85 -8 13 -29 16 -39 5z"/>
<path d="M2646 1011 c-10 -16 5 -41 25 -41 21 0 21 4 21 -170 0 -142 2 -130
-21 -130 -20 0 -35 -25 -25 -41 8 -13 118 -11 148 2 30 14 96 143 96 189 0 35
-62 168 -88 188 -18 14 -148 17 -156 3z m130 -49 c17 -11 71 -135 66 -152 -2
-8 -18 -43 -34 -77 -20 -43 -35 -63 -48 -63 -16 0 -18 12 -18 150 0 150 3 163
34 142z"/>
<path d="M1227 993 c-4 -3 -7 -21 -7 -40 0 -23 -6 -36 -17 -40 -34 -12 -44
-25 -32 -39 6 -8 19 -14 29 -14 16 0 18 -11 18 -97 1 -93 2 -99 27 -120 29
-25 100 -32 135 -13 25 14 41 44 34 64 -8 22 -31 20 -44 -4 -8 -15 -21 -20
-50 -20 -21 0 -42 5 -46 12 -4 6 -7 39 -6 72 1 116 -5 105 60 108 49 3 57 6
57 23 0 17 -8 20 -57 23 -58 3 -62 6 -58 45 3 30 -27 57 -43 40z"/>
<path d="M457 897 c-8 -21 12 -37 45 -37 l28 0 0 -95 0 -95 -34 0 c-25 0 -35
-5 -39 -19 -3 -12 1 -22 10 -25 27 -11 169 -6 180 5 19 19 3 39 -33 39 l-33 0
-3 118 -3 117 -56 3 c-42 2 -58 -1 -62 -11z"/>
<path d="M830 892 c-28 -22 -30 -67 -4 -91 11 -10 48 -30 84 -45 74 -32 96
-52 79 -73 -15 -17 -122 -18 -149 -1 -24 15 -46 -1 -37 -26 9 -24 51 -36 122
-36 79 0 119 27 117 79 -1 45 -14 57 -110 102 -47 22 -81 43 -77 49 8 14 138
13 152 -1 15 -15 43 -4 43 15 0 30 -42 46 -121 46 -59 0 -82 -4 -99 -18z"/>
<path d="M1584 891 c-39 -24 -52 -59 -49 -137 5 -108 36 -134 163 -134 64 0
81 3 86 16 11 28 -4 34 -82 34 -80 1 -112 13 -112 44 0 14 14 16 94 16 104 0
106 1 106 70 0 30 -8 48 -31 75 -29 32 -35 35 -88 35 -37 0 -66 -6 -87 -19z
m140 -47 c9 -8 16 -26 16 -40 0 -23 -2 -24 -74 -24 -71 0 -74 1 -79 25 -3 18
2 30 17 40 27 20 100 19 120 -1z"/>
<path d="M1909 898 c-1 -7 -3 -68 -4 -135 -2 -98 1 -125 12 -135 26 -21 38 12
38 106 l-1 86 41 20 c47 23 93 26 100 8 2 -7 7 -57 9 -110 5 -103 9 -118 31
-118 18 0 23 23 20 95 -2 33 -4 79 -4 103 -2 85 -74 116 -164 71 -23 -12 -39
-18 -35 -14 10 10 -10 35 -28 35 -8 0 -15 -6 -15 -12z"/>
</g>
</svg>
